<svg xmlns="http://www.w3.org/2000/svg" xmlns:xlink="http://www.w3.org/1999/xlink" viewBox="0 0 165.89 26.69"><defs><style>.cls-1{fill:url(#Degradado_sin_nombre_5);}.cls-2{font-size:24px;font-family:Montserrat-Regular, Montserrat;}.cls-3{letter-spacing:-0.02em;}.cls-4{letter-spacing:-0.02em;}.cls-5{letter-spacing:-0.01em;}.cls-6{letter-spacing:-0.02em;}.cls-7{font-size:39.48px;font-family:Montserrat-Light, Montserrat;font-weight:300;}.cls-8{font-size:16.97px;font-family:Montserrat-Medium, Montserrat;font-weight:500;letter-spacing:-0.04em;}</style><linearGradient id="Degradado_sin_nombre_5" x1="48.14" y1="13.34" x2="131.93" y2="13.34" gradientUnits="userSpaceOnUse"><stop offset="0" stop-color="#fff"/><stop offset="0.84"/></linearGradient></defs><title>Capa 1 (2)</title><g id="Capa_2" data-name="Capa 2"><g id="Capa_1-2" data-name="Capa 1"><path class="cls-1" d="M39.75,19.92a5.27,5.27,0,0,1-2-1.78l1.06-1.2A4.21,4.21,0,0,0,42.43,19q3.12,0,3.12-3.7V5.14H39.41V3.6h7.9V15.24a5.67,5.67,0,0,1-1.24,4,4.73,4.73,0,0,1-3.66,1.33A5.69,5.69,0,0,1,39.75,19.92Z"/><path class="cls-1" d="M69.53,3.6V20.4h-1.7V7l-6.6,11.3h-.84L53.79,7V20.4h-1.7V3.6h1.46l7.3,12.46L68.07,3.6Z"/><path class="cls-1" d="M85.88,20.4,82,15a11.72,11.72,0,0,1-1.35.07H76.18V20.4H74.41V3.6h6.28a7.54,7.54,0,0,1,5,1.54,5.21,5.21,0,0,1,1.83,4.22,5.41,5.41,0,0,1-1,3.32,5.47,5.47,0,0,1-2.84,2l4.1,5.76Zm-1.42-7.94a3.82,3.82,0,0,0,1.32-3.1,3.83,3.83,0,0,0-1.32-3.13,5.83,5.83,0,0,0-3.81-1.09H76.18v8.42h4.47A5.83,5.83,0,0,0,84.46,12.46Z"/><path class="cls-1" d="M94.29,19.43a8.23,8.23,0,0,1-3.16-3.06A8.48,8.48,0,0,1,90,12a8.48,8.48,0,0,1,1.14-4.37,8.16,8.16,0,0,1,3.16-3.06,9.29,9.29,0,0,1,4.53-1.11,9.14,9.14,0,0,1,4.5,1.1,8.2,8.2,0,0,1,3.15,3.06A8.43,8.43,0,0,1,107.63,12a8.43,8.43,0,0,1-1.16,4.38,8.2,8.2,0,0,1-3.15,3.06,9.14,9.14,0,0,1-4.5,1.1A9.29,9.29,0,0,1,94.29,19.43Zm8.13-1.37a6.51,6.51,0,0,0,2.52-2.5,7,7,0,0,0,.91-3.56,7,7,0,0,0-.91-3.56,6.51,6.51,0,0,0-2.52-2.5,7.67,7.67,0,0,0-7.21,0,6.59,6.59,0,0,0-2.55,2.5A7,7,0,0,0,91.74,12a7,7,0,0,0,.92,3.56,6.59,6.59,0,0,0,2.55,2.5,7.67,7.67,0,0,0,7.21,0Z"/><path class="cls-1" d="M125.28,3.6V20.4h-1.46L113,6.77V20.4h-1.78V3.6h1.46l10.83,13.63V3.6Z"/><text class="cls-2" transform="translate(37.87 20.4)"><tspan class="cls-3">J</tspan><tspan class="cls-4" x="11.48" y="0">M</tspan><tspan class="cls-5" x="33.8" y="0">R</tspan><tspan class="cls-6" x="50.86" y="0">O</tspan><tspan x="70.63" y="0">N</tspan></text><text class="cls-7" transform="translate(150.19 23.17) rotate(-90)">&gt;</text><text class="cls-8" transform="translate(142.32 21.47) rotate(-90)">&gt;</text></g></g></svg>